<svg id="wave" style="transform:rotate(0deg); transition: 0.3s" viewBox="0 0 1440 490" version="1.1" xmlns="http://www.w3.org/2000/svg"><defs><linearGradient id="sw-gradient-0" x1="0" x2="0" y1="1" y2="0"><stop stop-color="rgba(62, 188.591, 243, 1)" offset="0%" data-darkreader-inline-stopcolor="" style="--darkreader-inline-stopcolor:#0082ba;"></stop><stop stop-color="rgba(11, 255, 80.591, 1)" offset="100%" data-darkreader-inline-stopcolor="" style="--darkreader-inline-stopcolor:#00e263;"></stop></linearGradient></defs><path style="transform:translate(0, 0px); opacity:1" fill="url(#sw-gradient-0)" d="M0,49L26.7,81.7C53.3,114,107,180,160,212.3C213.3,245,267,245,320,228.7C373.3,212,427,180,480,196C533.3,212,587,278,640,294C693.3,310,747,278,800,228.7C853.3,180,907,114,960,147C1013.3,180,1067,310,1120,359.3C1173.3,408,1227,376,1280,326.7C1333.3,278,1387,212,1440,212.3C1493.3,212,1547,278,1600,277.7C1653.3,278,1707,212,1760,228.7C1813.3,245,1867,343,1920,326.7C1973.3,310,2027,180,2080,163.3C2133.3,147,2187,245,2240,245C2293.3,245,2347,147,2400,114.3C2453.3,82,2507,114,2560,122.5C2613.3,131,2667,114,2720,155.2C2773.3,196,2827,294,2880,302.2C2933.3,310,2987,229,3040,179.7C3093.3,131,3147,114,3200,138.8C3253.3,163,3307,229,3360,285.8C3413.3,343,3467,392,3520,416.5C3573.3,441,3627,441,3680,375.7C3733.3,310,3787,180,3813,114.3L3840,49L3840,490L3813.3,490C3786.7,490,3733,490,3680,490C3626.7,490,3573,490,3520,490C3466.7,490,3413,490,3360,490C3306.7,490,3253,490,3200,490C3146.7,490,3093,490,3040,490C2986.7,490,2933,490,2880,490C2826.7,490,2773,490,2720,490C2666.7,490,2613,490,2560,490C2506.7,490,2453,490,2400,490C2346.7,490,2293,490,2240,490C2186.7,490,2133,490,2080,490C2026.7,490,1973,490,1920,490C1866.7,490,1813,490,1760,490C1706.7,490,1653,490,1600,490C1546.7,490,1493,490,1440,490C1386.7,490,1333,490,1280,490C1226.7,490,1173,490,1120,490C1066.7,490,1013,490,960,490C906.7,490,853,490,800,490C746.7,490,693,490,640,490C586.7,490,533,490,480,490C426.7,490,373,490,320,490C266.7,490,213,490,160,490C106.7,490,53,490,27,490L0,490Z"></path></svg>